/* XPM */
static char *_525034040630[] = {
/* columns rows colors chars-per-pixel */
"16 16 89 1 ",
"  c #1B95C0",
". c #1FB7DB",
"X c #23A0C4",
"o c #25BBDC",
"O c #3AB3D6",
"+ c #1FBCE1",
"@ c #27C2DC",
"# c #35C0DE",
"$ c #2CC7E7",
"% c #2CCCE7",
"& c #22CBE8",
"* c #29CCEB",
"= c #27D0EA",
"- c #25D2EF",
"; c #25D4ED",
": c #30D0E8",
"> c #3CD7EF",
", c #26D3F5",
"< c #27D8F1",
"1 c #26D9F4",
"2 c #25D0F9",
"3 c #25D2FB",
"4 c #21D7F8",
"5 c #25D7FC",
"6 c #23D9FC",
"7 c #25D9FD",
"8 c #23DCFE",
"9 c #25DEFF",
"0 c #28DEFA",
"q c #29E0F5",
"w c #26E0FF",
"e c #26E2FF",
"r c #2AE7F8",
"t c #29E6FA",
"y c #29E1FF",
"u c #29E3FF",
"i c #2AE2FE",
"p c #2BE3FE",
"a c #2DE1FF",
"s c #2CE2FF",
"d c #2CE6FE",
"f c #2CEBF9",
"g c #3CE7F4",
"h c #36E9F7",
"j c #3BE7FE",
"k c #33EDFD",
"l c #25F1FF",
"z c #28F0FF",
"x c #29F1FF",
"c c #2AF0FF",
"v c #2DF1FE",
"b c #2EF1FE",
"n c #2DF2FE",
"m c #2FF2FE",
"M c #2FF3FF",
"N c #2AF5FF",
"B c #2BF5FF",
"V c #2BF6FF",
"C c #2BF7FF",
"Z c #2DF4FF",
"A c #2DF5FF",
"S c #2EF4FF",
"D c #2FF4FF",
"F c #2EF5FF",
"G c #2EF7FF",
"H c #2FFAFF",
"J c #30F4FD",
"K c #32F4FE",
"L c #39F2FC",
"P c #3DF2FD",
"I c #30F8FF",
"U c #30F9FF",
"Y c #30FBFF",
"T c #32FBFF",
"R c #33FCFF",
"E c #39F9FF",
"W c #56D6DE",
"Q c #57E4EA",
"! c #49ECFE",
"~ c #51E1F2",
"^ c #41F6FE",
"/ c #44F5FE",
"( c #43FAFE",
") c #45FAFE",
"_ c #4AF9FE",
"` c #4BF9FE",
"' c #53F9FF",
"] c #51FAFE",
"[ c None",
/* pixels */
"[o[[[[[[[[[[[[[[",
"[.~[[[[[[[[[[[[[",
"O[:[@g[[[[[[[[[[",
"[[t[&h[[[[[[[[[[",
"[X%[[$=ZKK^[[[[[",
"[+l>[[[vZvCC`[[[",
"[[*#[[[cZJIIC`[[",
"[[,0[[[[[[[fHZ[[",
"[[wu[[[[[[[[KI)[",
"[3wp[[[;CQ[[qIE[",
"[2wa[[[ZcL[[;YE[",
"[[9a[[ ZlP[[1Y)[",
"[[7p[[[<vW[[fH[[",
"[[[8![[[[[[[Z][[",
"[[[[7j[[[[4v][[[",
"[[[[[[7ddk/[[[[["
};
