/* XPM */
static char *_525034088021[] = {
/* columns rows colors chars-per-pixel */
"64 64 101 2 ",
"   c #105D89",
".  c #126895",
"X  c #196F9D",
"o  c #1077A7",
"O  c #197BA7",
"+  c #147BAB",
"@  c #147EB3",
"#  c #1583B4",
"$  c #168AB5",
"%  c #1588B9",
"&  c #2491B6",
"*  c #39ADBD",
"=  c #56ABBA",
"-  c #1A8EC4",
";  c #1692C1",
":  c #1C94C5",
">  c #1A9BCB",
",  c #2196C0",
"<  c #17A3D5",
"1  c #1CA8DA",
"2  c #1FB0DB",
"3  c #38B9CD",
"4  c #2CAED3",
"5  c #20AFDB",
"6  c #2DB0D0",
"7  c #21B5DC",
"8  c #35BFD6",
"9  c #1FB3E3",
"0  c #26B7E1",
"q  c #23BEE4",
"w  c #2BBDE1",
"e  c #31BBE0",
"r  c #32C2DB",
"t  c #1ED8FF",
"y  c #25C3E7",
"u  c #2CC4E0",
"i  c #23C4ED",
"p  c #26CCEE",
"a  c #2ECAEB",
"s  c #32CCE6",
"d  c #26D2EF",
"f  c #37D2EB",
"g  c #3EDFED",
"h  c #24C5F3",
"j  c #24CCF4",
"k  c #23CCF9",
"l  c #32CCF2",
"z  c #26D2F2",
"x  c #29D4F4",
"c  c #27DEF7",
"v  c #2ADCF6",
"b  c #24D4FB",
"n  c #28D4FD",
"m  c #26DEFE",
"M  c #29DDFC",
"N  c #31DDF4",
"B  c #26E2FF",
"V  c #2AE4FE",
"C  c #26EAFF",
"Z  c #2CECFF",
"A  c #30E1F5",
"S  c #34ECF7",
"D  c #34E3FD",
"F  c #3CE4F9",
"G  c #33E9FD",
"H  c #3AE9FD",
"J  c #2EF3FF",
"K  c #2FF9FE",
"L  c #31F6FF",
"P  c #3CF4FD",
"I  c #32F8FF",
"U  c #3EFAFE",
"Y  c #53D7ED",
"T  c #50DEF4",
"R  c #67DEE2",
"E  c #41E7F4",
"W  c #4EE6F3",
"Q  c #40E1F8",
"!  c #44EBFE",
"~  c #4AEBFC",
"^  c #54E2F5",
"/  c #5DE2F0",
"(  c #55ECF2",
")  c #58E8F9",
"_  c #44F4FE",
"`  c #4BF5FF",
"'  c #43FAFE",
"]  c #4CFBFE",
"[  c #52F1FE",
"{  c #5CF2FF",
"}  c #51FCFE",
"|  c #5AFCFD",
" . c #62E4ED",
".. c #64EAEE",
"X. c #6CE8EE",
"o. c #73E9EF",
"O. c #6BEEF7",
"+. c #63F4FD",
"@. c #6FF7FE",
"#. c #72FAFF",
"$. c None",
/* pixels */
"$.$.$.$.$.$.$.$.$.$.$.$.$.$.$.$.$.$.$.$.$.$.$.$.$.$.$.$.$.$.$.$.$.$.$.$.$.$.$.$.$.$.$.$.$.$.$.$.$.$.$.$.$.$.$.$.$.$.$.$.$.$.$.$.",
"$.$.$.$.$.$.$.$.$.$.$.$.$.$.$.$.$.$.$.$.$.$.$.$.$.$.$.$.$.$.$.$.$.$.$.$.$.$.$.$.$.$.$.$.$.$.$.$.$.$.$.$.$.$.$.$.$.$.$.$.$.$.$.$.",
"$.$.$.$.$.$.$.$.$.$.$.$.$.$.$.$.$.$.$.$.$.$.$.$.$.$.$.$.$.$.$.$.$.$.$.$.$.$.$.$.$.$.$.$.$.$.$.$.$.$.$.$.$.$.$.$.$.$.$.$.$.$.$.$.",
"$.$.$.$.$.$.$.$.$.$.$.$.$.$.$.$.$.$.$.$.$.$.$.$.$.$.$.$.$.$.$.$.$.$.$.$.$.$.$.$.$.$.$.$.$.$.$.$.$.$.$.$.$.$.$.$.$.$.$.$.$.$.$.$.",
"$.$.@ t ~ $.$.$.$., v s s r = $.$.$.$.$.$.$.$.$.$.$.$.$.$.$.$.$.$.$.$.$.$.$.$.$.$.$.$.$.$.$.$.$.$.$.$.$.$.$.$.$.$.$.$.$.$.$.$.$.",
"$.$.X h T $.$.$.$.< C C B C / $.$.$.$.$.$.$.$.$.$.$.$.$.$.$.$.$.$.$.$.$.$.$.$.$.$.$.$.$.$.$.$.$.$.$.$.$.$.$.$.$.$.$.$.$.$.$.$.$.",
"$.$.$.$.$.$.$.$.$.1 B B B B O.$.$.$.$.$.$.$.$.$.$.$.$.$.$.$.$.$.$.$.$.$.$.$.$.$.$.$.$.$.$.$.$.$.$.$.$.$.$.$.$.$.$.$.$.$.$.$.$.$.",
"$.$.$.$.$.$.$.$.$.0 C B B B #.$.$.$.$.$.$.$.$.$.$.$.$.$.$.$.$.$.$.$.$.$.$.$.$.$.$.$.$.$.$.$.$.$.$.$.$.$.$.$.$.$.$.$.$.$.$.$.$.$.",
"$.$.$.$.$.$.$.$.$.9 V B B C @.$.$.$.$.$.$.$.$.$.$.$.$.$.$.$.$.$.$.$.$.$.$.$.$.$.$.$.$.$.$.$.$.$.$.$.$.$.$.$.$.$.$.$.$.$.$.$.$.$.",
"$.$.$.$.+ n M Y $.$.$.$.& 6 $.$.$.$.$.$.$.$.$.$.$.$.$.$.$.$.$.$.$.$.$.$.$.$.$.$.$.$.$.$.$.$.$.$.$.$.$.$.$.$.$.$.$.$.$.$.$.$.$.$.",
"$.$.$.$.% m B ^ $.$.$.$.$.$.$.$.$.$.$.$.8 $.* $.$.$.$.$.$.$.$.$.$.$.$.$.$.$.$.$.$.$.$.$.$.$.$.$.$.$.$.$.$.$.$.$.$.$.$.$.$.$.$.$.",
"$.$.$.$.- m B ^ $.$.$.i D u f r 3 $.$.o Z Z J J Z P $.$.$.$.$.$.$.$.$.$.$.$.$.$.$.$.$.$.$.$.$.$.$.$.$.$.$.$.$.$.$.$.$.$.$.$.$.$.",
"$.$.$.$.$.$.$.$.$.$.$.i C C B C P $.$.# Z Z Z Z C P $.$.$.$.$.$.$.$.$.$.$.$.$.$.$.$.$.$.$.$.$.$.$.$.$.$.$.$.$.$.$.$.$.$.$.$.$.$.",
"$.$.$.$.$.$.$.$.$.$.$.j B B B B _ $.$.% V C Z Z Z ' $.$.$.$.$.$.$.$.$.$.$.$.$.$.$.$.$.$.$.$.$.$.$.$.$.$.$.$.$.$.$.$.$.$.$.$.$.$.",
"$.$.$.$.$.$.$.$.$.$.$.j B B B B _ $.$.; Z Z Z Z C ` $.$.$.$.$.$.$.$.$.$.$.$.$.$.$.$.$.$.$.$.$.$.$.$.$.$.$.$.$.$.$.$.$.$.$.$.$.$.",
"$.$.$.$.$.$.$.$.$.$.$.b C B C B ! $.$.> Z Z Z J C ` $.$.$.$.$.$.$.$.$.$.$.$.$.$.$.$.$.$.$.$.$.$.$.$.$.$.$.$.$.$.$.$.$.$.$.$.$.$.",
"$.$.$.$.$.$.$.$.$.$.$.h M z m B ~ $.$.> Z C Z J C } $.$.$.$.$.V N H g $.$.$.$.$.$.$.$.$.$.$.$.$.$.$.$.$.$.$.$.$.$.$.$.$.$.$.$.$.",
"$.$.$.$.$.$.$.$.$.$.$.$.$.$.$.$.$.$.$.$.$.$.$.$.$.$.$.$.V J Z J J J K J J L I _ $.$.$.$.$.$.$.$.$.$.$.$.$.$.$.$.$.$.$.$.$.$.$.$.",
"$.$.$.$.$.$.$.$.$.$.w 6 l e $.$.$.$.$.$.$.$.$.$.D $.$.y J J J J J L L G I J J J J J ' $.$.$.$.$.$.$.$.$.$.$.$.$.$.$.$.$.$.$.$.$.",
"$.$.$.$.$.$.$.$.$.  b C B B C C C ` $.$.$.$.b V C Z J J J J Z J L J J L J I I J J K J J U $.$.$.$.$.$.$.$.$.$.$.$.$.$.$.$.$.$.$.",
"$.$.$.$.$.$.$.$.$.$.k B B B B B B ~ $.$.$.$.$.$.$.$.$.j Z J Z J J L L Z L L L J J I J J J K ' $.$.$.$.$.$.$.$.$.$.$.$.$.$.$.$.$.",
"$.$.$.$.$.$.$.$.$.. b B B B B B B ~ $.$.$.$.$.$.$.$.$.$.$.Z J J L Z L L Z L Z L K J J I J I J I $.$.$.$.$.$.$.$.$.$.$.$.$.$.$.$.",
"$.$.$.$.$.$.$.$.$.+ b B m B B B B W $.$.$.$.$.$.$.$.$.$.$.c J J L Z Z L L L I J I J J K J I K J J ] $.$.$.$.$.$.$.$.$.$.$.$.$.$.",
"$.$.$.$.$.$.$.$.$.+ M B B m B B C W $.$.$.$.$.$.$.$.$.$.$.M J Z Z L J L J I J J J J I J J I J I I J ] $.$.$.$.$.$.$.$.$.$.$.$.$.",
"$.$.$.$.$.$.$.$.$.+ m B B B B B C ( $.$.$.$.$.$.$.$.$.$.$.v J J L J J J L L G J J J J J I I I J K I J ] $.$.$.$.$.$.$.$.$.$.$.$.",
"$.$.$.$.$.$.$.$.$.O x b n M M m t { $.$.$.$.$.$.$.$.$.$.$.v J J J J J I J L I J I K I J I J J I J I I J | $.$.$.$.$.$.$.$.$.$.$.",
"$.$.$.$.$.$.$.$.$.$.$.$.$.$.$.$.$.$.$.$.$.$.$.$.$.$.$.$.$.c J J J J J J J I J J J J J J J J I J I K I I U $.$.$.$.$.$.$.$.$.$.$.",
"$.$.$.$.$.$.$.$.$.$.$.$.$.n v x v a y v $.$.$.$.$.$.$.$.$.B Z J J L S S A V Z J K I I J J I K I J J I I K ' $.$.$.$.$.$.$.$.$.$.",
"$.$.$.$.$.$.$.$.$.$.$.$.$.B B B B V C G $.$.$.$.$.$.$.$.$.V P ` $.$.$.$.$.$.$.$.j c J K I J J I I K I I I K | $.$.$.$.$.$.$.$.$.",
"$.$.$.$.$.$.$.$.$.$.$.$.M B m B B V V G $.$.$.$.$.$.$.$.$.~ $.$.$.$.$.$.$.$.$.$.$.$.$.A I I I J J I I I I I U $.$.$.$.$.$.$.$.$.",
"$.$.$.$.$.$.$.$.$.$.$.i m B m m B B B G $.$.$.$.$.$.$.$.$.$.$.$.$.$.$.$.$.$.$.$.$.$.$.$.d K J I J I I I I I K | $.$.$.$.$.$.$.$.",
"$.$.$.$.$.$.$.$.$.$.$.b B m B B B B B G $.$.$.$.$.$.$.$.$.$.$.$.$.$.$.$.$.$.$.$.$.$.$.$.$.z I I J I I I I I I ' $.$.$.$.$.$.$.$.",
"$.$.$.$.$.$.$.$.$.$.$.M B B B m B B B G $.$.$.$.$.$.$.$.$.$.$.$.$.$.$.$.$.$.$.$.$.$.$.$.$.$.c I K I I I L I I P $.$.$.$.$.$.$.$.",
"$.$.$.$.$.$.$.$.$.$.$.m m m m B B B B H $.$.$.$.$.$.$.$.$.$.$.$.$.$.$.$.$.$.$.$.$.$.$.$.$.$.$.I I J I I I I I I | $.$.$.$.$.$.$.",
"$.$.$.$.$.$.$.$.$.$.$.m m m m m m B B H $.$.$.$.$.$.$.$.$.$.$.0 v Z I S W $.$.$.$.$.$.$.$.$.$.A K I I I I I I K ] $.$.$.$.$.$.$.",
"$.$.$.$.$.$.$.$.$.$.k B m m B m m V B ! $.$.$.$.$.$.$.$.$.$.z J J J J J J ' $.$.$.$.$.$.$.$.$.y I J I I I I I I ' $.$.$.$.$.$.$.",
"$.$.$.$.$.$.$.$.$.$.k B m m B m B m B ! $.$.$.$.$.$.$.$.$.7 J J Z J Z J J J ( $.$.$.$.$.$.$.$.$.K J I I I I I I U $.$.$.$.$.$.$.",
"$.$.$.$.$.$.$.$.$.$.n m m m m B m V m ! $.$.$.$.$.$.$.$.$.v J Z J Z J J J J U $.$.$.$.$.$.$.$.$.J I I I I I I J U $.$.$.$.$.$.$.",
"$.$.$.$.$.$.$.$.$.$.n m m m m B m B B ~ $.$.$.$.$.$.$.$.> Z J Z Z Z J Z Z J I  .$.$.$.$.$.$.$.$.J I I I I L U I U $.$.$.$.$.$.$.",
"$.$.$.$.$.$.$.$.$.$.h m m m m m B m m ~ $.$.$.$.$.$.$.$.1 J Z Z Z Z Z J J L I  .$.$.$.$.$.$.$.$.Z I I I L L I I U $.$.$.$.$.$.$.",
"$.$.$.$.$.$.$.$.$.$.$.m m m m B m m m [ $.$.$.$.$.$.$.$.i J Z Z J Z J Z J J J +.$.$.$.$.$.$.$.$.Z K I I I I I I ' $.$.$.$.$.$.$.",
"$.$.$.$.$.$.$.$.$.$.$.M m m m m m B B { $.$.$.$.$.$.$.$.p Z Z G J Z J Z Z J J { $.$.$.$.$.$.$.$.Z I I U I I I I } $.$.$.$.$.$.$.",
"$.$.$.$.$.$.$.$.$.$.$.n M m m m m V m $.$.$.$.$.$.$.$.$.i Z Z Z Z J J Z J J J ..$.$.$.$.$.$.$.$.Z I I L I I I I | $.$.$.$.$.$.$.",
"$.$.$.$.$.$.$.$.$.$.$.n m m m m M m B $.$.$.$.$.$.$.$.$.y Z Z Z Z J Z Z Z J I o.$.$.$.$.$.$.$.$.J K L I I L I I $.$.$.$.$.$.$.$.",
"$.$.$.$.$.$.$.$.$.$.$.h M m M m B m B $.$.$.$.$.$.$.$.$.5 J Z Z Z Z J J Z J U $.$.$.$.$.$.$.$.$.L K L I I I I ] $.$.$.$.$.$.$.$.",
"$.$.$.$.$.$.$.$.$.$.$.$.b M M m m m m [ $.$.$.$.$.$.$.$.: V Z Z Z Z Z Z J C ` $.$.$.$.$.$.$.$.$.L L L I I I K $.$.$.$.$.$.$.$.$.",
"$.$.$.$.$.$.$.$.$.$.$.$.k m m m m V m ! $.$.$.$.$.$.$.$.$.j G Z Z Z J Z C J ..$.$.$.$.$.$.$.$.p I L L I I I ' $.$.$.$.$.$.$.$.$.",
"$.$.$.$.$.$.$.$.$.$.$.$.$.b m m m m m D $.$.$.$.$.$.$.$.$.$ M L Z Z Z J J ( $.$.$.$.$.$.$.$.$.V I L I I I I $.$.$.$.$.$.$.$.$.$.",
"$.$.$.$.$.$.$.$.$.$.$.$.$.$.m m B M m m $.$.$.$.$.$.$.$.$.$.$.q v G G E  .$.$.$.$.$.$.$.$.$.$.J K I L I K | $.$.$.$.$.$.$.$.$.$.",
"$.$.$.$.$.$.$.$.$.$.$.$.$.$.k m m m m m ! $.$.$.$.$.$.$.$.$.$.$.$.$.$.$.$.$.$.$.$.$.$.$.$.$.Z I K K L K ' $.$.$.$.$.$.$.$.$.$.$.",
"$.$.$.$.$.$.$.$.$.$.$.$.$.$.$.k B M m m m +.$.$.$.$.$.$.$.$.$.$.$.$.$.$.$.$.$.$.$.$.$.$.$.x I L J I L L $.$.$.$.$.$.$.$.$.$.$.$.",
"$.$.$.$.$.$.$.$.$.$.$.$.$.$.$.$.n B m m m B ) $.$.$.$.$.$.$.$.$.$.$.$.$.$.$.$.$.$.$.$.$.z I L J I J L $.$.$.$.$.$.$.$.$.$.$.$.$.",
"$.$.$.$.$.$.$.$.$.$.$.$.$.$.$.$.$.k B B m m B ! $.$.$.$.$.$.$.$.$.$.$.$.$.$.$.$.$.$.$.x I J I J J I $.$.$.$.$.$.$.$.$.$.$.$.$.$.",
"$.$.$.$.$.$.$.$.$.$.$.$.$.$.$.$.$.$.k m B B B m V ~ $.$.$.$.$.$.$.$.$.$.$.$.$.$.$.j V I J J J J P $.$.$.$.$.$.$.$.$.$.$.$.$.$.$.",
"$.$.$.$.$.$.$.$.$.$.$.$.$.$.$.$.$.$.$.$.b B B m B B V H F Q $.$.$.$.$.$.$.$.j v V J J J J J J ` $.$.$.$.$.$.$.$.$.$.$.$.$.$.$.$.",
"$.$.$.$.$.$.$.$.$.$.$.$.$.$.$.$.$.$.$.$.$.k M B V V V m B V C V V G V C Z Z J J J J Z J J P $.$.$.$.$.$.$.$.$.$.$.$.$.$.$.$.$.$.",
"$.$.$.$.$.$.$.$.$.$.$.$.$.$.$.$.$.$.$.$.$.$.$.k n V V V B V V V Z V Z Z Z Z G Z G J Z P $.$.$.$.$.$.$.$.$.$.$.$.$.$.$.$.$.$.$.$.",
"$.$.$.$.$.$.$.$.$.$.$.$.$.$.$.$.$.$.$.$.$.$.$.$.$.$.n M B V Z V V Z C C V C J Z L P $.$.$.$.$.$.$.$.$.$.$.$.$.$.$.$.$.$.$.$.$.$.",
"$.$.$.$.$.$.$.$.$.$.$.$.$.$.$.$.$.$.$.$.$.$.$.$.$.$.$.$.$.$.M M M V D G H F $.$.$.$.$.$.$.$.$.$.$.$.$.$.$.$.$.$.$.$.$.$.$.$.$.$.",
"$.$.$.$.$.$.$.$.$.$.$.$.$.$.$.$.$.$.$.$.$.$.$.$.$.$.$.$.$.$.$.$.$.$.$.$.$.$.$.$.$.$.$.$.$.$.$.$.$.$.$.$.$.$.$.$.$.$.$.$.$.$.$.$.",
"$.$.$.$.$.$.$.$.$.$.$.$.$.$.$.$.$.$.$.$.$.$.$.$.$.$.$.$.$.$.$.$.$.$.$.$.$.$.$.$.$.$.$.$.$.$.$.$.$.$.$.$.$.$.$.$.$.$.$.$.$.$.$.$.",
"$.$.$.$.$.$.$.$.$.$.$.$.$.$.$.$.$.$.$.$.$.$.$.$.$.$.$.$.$.$.$.$.$.$.$.$.$.$.$.$.$.$.$.$.$.$.$.$.$.$.$.$.$.$.$.$.$.$.$.$.$.$.$.$.",
"$.$.$.$.$.$.$.$.$.$.$.$.$.$.$.$.$.$.$.$.$.$.$.$.$.$.$.$.$.$.$.$.$.$.$.$.$.$.$.$.$.$.$.$.$.$.$.$.$.$.$.$.$.$.$.$.$.$.$.$.$.$.$.$.",
"$.$.$.$.$.$.$.$.$.$.$.$.$.$.$.$.$.$.$.$.$.$.$.$.$.$.$.$.$.$.$.$.$.$.$.$.$.$.$.$.$.$.$.$.$.$.$.$.$.$.$.$.$.$.$.$.$.$.$.$.$.$.$.$."
};
