/* XPM */
static char *_525034069336[] = {
/* columns rows colors chars-per-pixel */
"32 32 83 1 ",
"  c #1C8BB0",
". c #1D90B5",
"X c #1993BB",
"o c #2C90B5",
"O c #26A1BD",
"+ c #3AA0BB",
"@ c #1E95C0",
"# c #199AC3",
"$ c #1A9DC8",
"% c #1FA9C9",
"& c #1DADD4",
"* c #1DB3DC",
"= c #24A3C6",
"- c #29A5CE",
"; c #21ADCD",
": c #21B0D3",
"> c #23B3D8",
", c #23BCDC",
"< c #2EBDDE",
"1 c #2DBBE0",
"2 c #2DC0DA",
"3 c #30C3DD",
"4 c #18D8F4",
"5 c #1FD9FD",
"6 c #27C6E5",
"7 c #2CC6E4",
"8 c #2ACBE5",
"9 c #2AC6E8",
"0 c #23CAE9",
"q c #29CEEB",
"w c #35CDEC",
"e c #34C4EA",
"r c #26D3EC",
"t c #29D3ED",
"y c #2BDFED",
"u c #3FD0E5",
"i c #36D3EB",
"p c #22C3F1",
"a c #24CAF3",
"s c #2BCDF0",
"d c #24D3F3",
"f c #29D5F1",
"g c #26DAF4",
"h c #29DDF3",
"j c #24D3FB",
"k c #25DDFE",
"l c #1EE7FB",
"z c #2EE5F3",
"x c #2DEBF5",
"c c #25E2FF",
"v c #2BE4FD",
"b c #26E9FB",
"n c #2CECFD",
"m c #3BEAF5",
"M c #34E4FE",
"N c #39E5FD",
"B c #34EBFC",
"V c #3CEDFF",
"C c #26F4FF",
"Z c #2DF4FF",
"A c #25FBFF",
"S c #2CF9FF",
"D c #32F5FE",
"F c #3AF3FC",
"G c #32F9FF",
"H c #3BF9FF",
"J c #42CBDF",
"K c #4DDBE4",
"L c #4DE5EF",
"P c #50E0EB",
"I c #5AE4ED",
"U c #4BE7F3",
"Y c #4AEAF3",
"T c #45E9FB",
"R c #4BEDFE",
"E c #50EAF2",
"W c #57EAFB",
"Q c #44F5FE",
"! c #49F0FF",
"~ c #42F9FE",
"^ c #4BFAFE",
"/ c #50F7FC",
"( c None",
/* pixels */
"-+(((2((((((((((((((((((((((((((",
"((((*lm(((((((((((((((((((((((((",
"((((*4V(((((((((((((((((((((((((",
"(@e((=((((((((((((((((((((((((((",
"(#w(((72((OzzK((((((((((((((((((",
"(((((*ACuo%AAY((((((((((((((((((",
"(((((&bvJ(%ZCK((((((((((((((((((",
"((((((<(((((8((0nDBFFF/(((((((((",
"(((( 8vfi(((sqfnZDZZZZZHQ(((((((",
"((((XrbbM((((((dnZDDZZZZZH^(((((",
"(((($kCcN(((((((vSZZDZZDZZS~((((",
"((((.,tfw(((((((bZZZDDGDSDZZ~(((",
"(((((((97<((((((BHHnvxnSSGDSAQ((",
"((((((abcv!(((((T((((((gnDDSDS^(",
"(((((akvcvR((((((((((((((hGGGSH(",
"(((((jckcv((((((((((((((((zGGSH^",
"(((((jvkkM(((((((qxmI(((((qGGSG~",
"(((((kkvcM((((((rSSZD((((((DGGHH",
"(((((jkk5M(((((:nSnZAL(((((DGGDG",
"(((((jvkcN(((((,nSnCZY(((((nGGG~",
"(((((jkkkN(((((,nSnZCY(((((ZGSH^",
"(((((pkk5M(((((>vZnnZI(((((DGS~(",
"((((((jckM((((((hZZCF(((((0SGS^(",
"(((((((kkcR((((((6VU((((((zGC~((",
"((((((((kkM((((((((((((((tSSG(((",
"(((((((((jcMW(((((((((((rbGQ((((",
"((((((((((jkcMT(((((((dcSGQ(((((",
"((((((((((((jkcbvvvvnnZHQ(((((((",
"((((((((((((((jkvvvMBBQ(((((((((",
"((((((((((((((((((((((((((((((((",
"((((((((((((((((((((((((((((((((",
"(((((((((((((((((((((((((((((((("
};
